<?xml version="1.0" standalone="no"?><!DOCTYPE svg PUBLIC "-//W3C//DTD SVG 1.1//EN" "http://www.w3.org/Graphics/SVG/1.1/DTD/svg11.dtd"><svg t="1590023930319" class="icon" viewBox="0 0 1024 1024" version="1.1" xmlns="http://www.w3.org/2000/svg" p-id="2858" xmlns:xlink="http://www.w3.org/1999/xlink" width="200" height="200"><defs><style type="text/css"></style></defs><path d="M512 512m-512 0a512 512 0 1 0 1024 0 512 512 0 1 0-1024 0Z" p-id="2859"></path><path d="M512 204.8a26.112 26.112 0 1 1 0 52.224A255.010133 255.010133 0 1 0 767.010133 512 26.112 26.112 0 1 1 819.2 512a307.2 307.2 0 1 1-307.2-307.2z m158.139733 130.628267a25.668267 25.668267 0 0 1 36.488534-36.078934l44.9536 44.987734c13.585067 13.585067 13.585067 35.498667 0 49.117866l-44.987734 44.9536a25.668267 25.668267 0 0 1-36.2496-36.2496l7.611734-7.611733h-33.109334c-90.043733 0-120.6272 38.331733-120.6272 154.282667a25.6 25.6 0 1 1-51.3024 0c0-143.36 52.3264-205.585067 171.895467-205.585067h33.109333l-7.7824-7.816533z" p-id="2860"></path></svg>