<?xml version="1.0" standalone="no"?><!DOCTYPE svg PUBLIC "-//W3C//DTD SVG 1.1//EN" "http://www.w3.org/Graphics/SVG/1.1/DTD/svg11.dtd"><svg t="1590023874777" class="icon" viewBox="0 0 1024 1024" version="1.1" xmlns="http://www.w3.org/2000/svg" p-id="2190" xmlns:xlink="http://www.w3.org/1999/xlink" width="200" height="200"><defs><style type="text/css"></style></defs><path d="M581.818182 232.727273A69.818182 69.818182 0 0 1 651.636364 302.545455V325.818182h116.363636a23.272727 23.272727 0 1 1 0 46.545454H744.727273v325.818182a93.090909 93.090909 0 0 1-93.090909 93.090909H372.363636a93.090909 93.090909 0 0 1-93.090909-93.090909V372.363636h-23.272727a23.272727 23.272727 0 0 1 0-46.545454H372.363636v-23.272727A69.818182 69.818182 0 0 1 442.181818 232.727273h139.636364zM698.181818 372.363636H325.818182v325.818182a46.545455 46.545455 0 0 0 41.099636 46.219637L372.363636 744.727273h279.272728a46.545455 46.545455 0 0 0 46.219636-41.099637L698.181818 698.181818V372.363636zM418.909091 442.181818a23.272727 23.272727 0 0 1 23.272727 23.272727v186.181819a23.272727 23.272727 0 1 1-46.545454 0v-186.181819a23.272727 23.272727 0 0 1 23.272727-23.272727z m93.090909 0a23.272727 23.272727 0 0 1 23.272727 23.272727v186.181819a23.272727 23.272727 0 1 1-46.545454 0v-186.181819a23.272727 23.272727 0 0 1 23.272727-23.272727z m93.090909 0a23.272727 23.272727 0 0 1 23.272727 23.272727v186.181819a23.272727 23.272727 0 1 1-46.545454 0v-186.181819a23.272727 23.272727 0 0 1 23.272727-23.272727zM581.818182 279.272727h-139.636364a23.272727 23.272727 0 0 0-22.900363 19.083637L418.909091 302.545455V325.818182h186.181818v-23.272727a23.272727 23.272727 0 0 0-19.083636-22.900364L581.818182 279.272727z" p-id="2191"></path></svg>