<?xml version="1.0" standalone="no"?><!DOCTYPE svg PUBLIC "-//W3C//DTD SVG 1.1//EN" "http://www.w3.org/Graphics/SVG/1.1/DTD/svg11.dtd"><svg t="1590023883890" class="icon" viewBox="0 0 1123 1024" version="1.1" xmlns="http://www.w3.org/2000/svg" p-id="2330" xmlns:xlink="http://www.w3.org/1999/xlink" width="219.3359375" height="200"><defs><style type="text/css"></style></defs><path d="M942.509419 436.025806C911.36 245.330581 745.240774 99.096774 545.032258 99.096774S178.704516 245.330581 147.489032 436.025806C120.138323 441.410065 99.096774 464.268387 99.096774 493.072516v102.135742c0 32.701935 26.624 59.193806 59.458065 59.193807h28.473806c32.834065 0 59.458065-26.491871 59.458065-59.193807v-102.135742a59.127742 59.127742 0 0 0-36.764904-54.635355 341.256258 341.256258 0 0 1 335.27742-277.636129c166.812903 0 305.845677 119.907097 335.277419 277.636129a59.127742 59.127742 0 0 0-36.698839 54.635355v102.135742c0 14.996645 6.044903 28.275613 15.260904 38.713807a341.982968 341.982968 0 0 1-250.483613 200.373677 43.107097 43.107097 0 0 0-33.692903-16.780387h-70.722065c-24.212645 0-43.800774 19.555097-43.800774 43.60258v20.18271c0 24.113548 19.588129 43.635613 43.800774 43.635613h70.755097c19.15871 0 34.948129-12.387097 40.926968-29.431742a403.852387 403.852387 0 0 0 301.716645-241.102451h14.170838c32.834065 0 59.458065-26.491871 59.458065-59.193807v-102.135742c0-28.804129-21.074581-51.695484-48.458323-56.980645z" p-id="2331"></path></svg>