<?xml version="1.0" standalone="no"?><!DOCTYPE svg PUBLIC "-//W3C//DTD SVG 1.1//EN" "http://www.w3.org/Graphics/SVG/1.1/DTD/svg11.dtd"><svg t="1590023781055" class="icon" viewBox="0 0 1097 1024" version="1.1" xmlns="http://www.w3.org/2000/svg" p-id="992" xmlns:xlink="http://www.w3.org/1999/xlink" width="214.2578125" height="200"><defs><style type="text/css"></style></defs><path d="M432.713143 0c239.030857 0 432.786286 196.242286 432.786286 438.418286a439.588571 439.588571 0 0 1-81.627429 255.488l248.466286 251.026285L961.536 1024l-242.907429-258.925714c-72.850286 56.32-187.245714 111.689143-285.915428 111.689143C193.828571 876.763429 0 680.521143 0 438.418286 0 196.315429 193.755429 0 432.713143 0z m0 91.648c-189.001143 0-342.308571 155.209143-342.308572 346.697143 0 191.561143 153.307429 346.770286 342.308572 346.770286 189.074286 0 342.308571-155.209143 342.308571-346.697143 0-191.561143-153.234286-346.697143-342.308571-346.697143z" p-id="993"></path></svg>