<?xml version="1.0" standalone="no"?><!DOCTYPE svg PUBLIC "-//W3C//DTD SVG 1.1//EN" "http://www.w3.org/Graphics/SVG/1.1/DTD/svg11.dtd"><svg t="1590023796485" class="icon" viewBox="0 0 1024 1024" version="1.1" xmlns="http://www.w3.org/2000/svg" p-id="1134" xmlns:xlink="http://www.w3.org/1999/xlink" width="200" height="200"><defs><style type="text/css"></style></defs><path d="M712.134258 0H88.461369C55.181369 0 28.443591 27.761778 28.443591 62.122667v667.875555C28.443591 892.586667 156.102258 1024 312.489813 1024h623.047111C968.816924 1024 995.554702 996.238222 995.554702 961.877333V294.684444C996.18048 132.152889 868.521813 0 712.134258 0zM654.221369 512h113.777778a56.888889 56.888889 0 0 1 0 113.777778h-113.777778a56.888889 56.888889 0 0 1 0-113.777778zM255.999147 512h227.555555a56.888889 56.888889 0 0 1 0 113.777778H255.999147a56.888889 56.888889 0 0 1 0-113.777778z m0-227.555556h512a56.888889 56.888889 0 0 1 0 113.777778H255.999147a56.888889 56.888889 0 0 1 0-113.777778z" p-id="1135"></path></svg>