<?xml version="1.0" standalone="no"?><!DOCTYPE svg PUBLIC "-//W3C//DTD SVG 1.1//EN" "http://www.w3.org/Graphics/SVG/1.1/DTD/svg11.dtd"><svg t="1590023818648" class="icon" viewBox="0 0 1024 1024" version="1.1" xmlns="http://www.w3.org/2000/svg" p-id="1418" xmlns:xlink="http://www.w3.org/1999/xlink" width="200" height="200"><defs><style type="text/css"></style></defs><path d="M570.24665 21.330963c-31.285413-28.384402-79.06677-28.384402-110.352183 0L13.650717 444.992334a41.126097 41.126097 0 0 0 55.176091 61.148761l7.053439-6.769025v442.148206c-0.056883 45.506055 36.746139 82.365959 82.195311 82.422841H397.778702v-247.837351c0-31.968004 25.881569-58.02022 57.906455-58.02022H568.597056c32.024886 0 58.02022 25.938451 58.02022 57.963337V1023.943117h245.220753c45.506055 0 82.365959-36.803022 82.365959-82.309076v-436.858127c18.316187 16.552827 44.254638 15.301411 59.442285-1.706477a41.126097 41.126097 0 0 0-2.957894-58.077103L570.303533 21.387846z" p-id="1419" fill="#d81e06"></path></svg>